<?xml version="1.0" standalone="no"?>
<!DOCTYPE svg PUBLIC "-//W3C//DTD SVG 20010904//EN"
 "http://www.w3.org/TR/2001/REC-SVG-20010904/DTD/svg10.dtd">
<svg version="1.0" xmlns="http://www.w3.org/2000/svg"
 width="500.000000pt" height="500.000000pt" viewBox="0 0 500.000000 500.000000"
 preserveAspectRatio="xMidYMid meet">
<metadata>
Created by potrace 1.11, written by Peter Selinger 2001-2013
</metadata>
<g transform="translate(0.000000,500.000000) scale(0.100000,-0.100000)"
fill="#000000" stroke="none">
<path d="M0 2500 l0 -2500 2500 0 2500 0 0 2500 0 2500 -2500 0 -2500 0 0
-2500z m3213 1323 c397 -229 739 -427 760 -440 l37 -23 -2 -876 -3 -875 -759
-438 -758 -438 -757 437 -756 436 -3 880 -2 880 757 437 c417 240 759 437 761
437 2 0 328 -187 725 -417z"/>
<path d="M1800 3724 c-377 -217 -695 -402 -707 -410 l-23 -14 0 -814 0 -814
703 -406 c387 -223 709 -406 715 -406 6 0 325 181 709 403 l698 403 3 820 2
820 -701 404 c-385 223 -704 406 -707 407 -4 2 -315 -175 -692 -393z m405
-884 c94 -14 169 -51 202 -101 58 -87 34 -204 -53 -258 l-43 -28 39 -17 c73
-32 120 -108 120 -197 0 -56 -44 -133 -96 -168 -74 -49 -124 -56 -389 -56
l-240 0 -3 405 c-1 223 0 411 3 417 6 16 354 18 460 3z m925 -15 c78 -24 145
-93 155 -157 12 -79 -24 -152 -99 -198 l-28 -18 23 -7 c79 -24 133 -107 133
-200 -1 -72 -19 -110 -74 -157 -72 -63 -114 -70 -397 -76 l-253 -4 0 414 c0
228 3 418 8 422 4 5 113 6 242 3 184 -4 247 -8 290 -22z"/>
<path d="M1952 2598 l3 -83 107 0 c99 0 108 2 132 24 36 34 36 92 0 120 -23
18 -41 21 -136 21 l-109 0 3 -82z"/>
<path d="M1950 2270 l0 -90 113 0 c94 0 117 3 144 20 59 36 55 111 -7 142 -27
14 -60 18 -142 18 l-108 0 0 -90z"/>
<path d="M2800 2594 l0 -86 109 4 c100 3 112 5 135 27 35 33 35 83 1 116 -23
24 -31 25 -135 25 l-110 0 0 -86z"/>
<path d="M2800 2270 l0 -90 113 0 c93 0 117 3 144 19 60 37 49 126 -18 150
-18 6 -79 11 -135 11 l-104 0 0 -90z"/>
</g>
</svg>
