<svg xmlns="http://www.w3.org/2000/svg" viewBox="0 0 288 173.6"><defs><style>.a{fill:#8371f6;}.b{fill:#f6bd42;}.c{fill:#de4138;}</style></defs><title>logo3</title><path class="a" d="M231.5,576h161a16,16,0,0,0,14-23.7L329,410.7a16,16,0,0,0-27.8-.4L217.7,551.9A16,16,0,0,0,231.5,576Z" transform="translate(-215.5 -402.4)"/><path class="b" d="M326.5,576h161a16,16,0,0,0,14-23.7L424,410.7a16,16,0,0,0-27.8-.4L312.7,551.9A16,16,0,0,0,326.5,576Z" transform="translate(-215.5 -402.4)"/><path class="c" d="M406.5,552.3l-45.3-82.7-48.5,82.3A16,16,0,0,0,326.5,576h66A16,16,0,0,0,406.5,552.3Z" transform="translate(-215.5 -402.4)"/></svg>